# xmcd
#
# Track frame offsets: 
#        150
#        13656
#        36889
#        51915
#        81809
#        99956
#        113353
#        131686
#        150409
#        166320
#        185823
#        200872
#        208777
#        223040
#        239265
#        255198
#        271544
#
# Disc length: 3751 seconds
#
# Revision: 3
# Processed by: cddbd v1.5.2PL0 Copyright (c) Steve Scherf et al.
# Submitted via: ExactAudioCopy v0.99pb4
#
DISCID=e10ea511
DTITLE=Raimond Pauls - Nostalgija
DYEAR=1999
DGENRE=Instrumental
TTITLE0=Eshe ne vecher
TTITLE1=Dvoe
TTITLE2=Starij klavesin
TTITLE3=Dolgaja doroga v dunah
TTITLE4=Rasstavanie
TTITLE5=Romans Ance
TTITLE6=Vernisazh
TTITLE7=Kapli boli
TTITLE8=Pasmurnaja pogoda
TTITLE9=V krasnie tona
TTITLE10=Nochnoj koster
TTITLE11=Nezakonchennij uzhin
TTITLE12=Vse troe
TTITLE13=Pesnja Keri
TTITLE14=Tainstvennoe pohishenie
TTITLE15=Skripach
TTITLE16=Dvojnoj kapkan
EXTD=
EXTT0=
EXTT1=
EXTT2=
EXTT3=
EXTT4=
EXTT5=
EXTT6=
EXTT7=
EXTT8=
EXTT9=
EXTT10=
EXTT11=
EXTT12=
EXTT13=
EXTT14=
EXTT15=
EXTT16=
PLAYORDER=
